# xmcd CD database file
#
# Track frame offsets:
#	150
#	16709
#	29136
#	41817
#	56653
#	81017
#	99405
#	110432
#	121566
#	137451
#	156718
#	182284
#	199707
#	213785
#	224369
#
# Disc length: 4189 seconds
#
# Revision: 0
# Processed by: cddbd v1.5.1PL2 Copyright (c) Steve Scherf et al.
# Submitted via: CDex 1.40Beta9
#
DISCID=c6105b0f
DTITLE=Chuck Wagon and the Wheels - The Best and/or Worst of
DYEAR=2006
DGENRE=Country
TTITLE0=Red Hot Women and Ice Cold Beer
TTITLE1=How Can I Love You
TTITLE2=Beer Drinkin' and Hell Raisin'
TTITLE3=Carolinda
TTITLE4=Medley: Ghost Riders in the Sky - Rawhide
TTITLE5=Too Much Fun
TTITLE6=You Shot the T.V.
TTITLE7=My Girl Passed Out in Her Food
TTITLE8=You Only Say You Love Me When You're Drunk
TTITLE9=Disco Sucks
TTITLE10=Rasta Mother
TTITLE11=Seeds and Stems
TTITLE12=Asshole from El Paso
TTITLE13=Why Don't We Get Drunk and Screw
TTITLE14=Gloria
EXTD=YEAR: 2006 ID3G: 2
EXTT0=
EXTT1=
EXTT2=
EXTT3=
EXTT4=
EXTT5=
EXTT6=
EXTT7=
EXTT8=
EXTT9=
EXTT10=
EXTT11=
EXTT12=
EXTT13=
EXTT14=
PLAYORDER=
